<svg xmlns="http://www.w3.org/2000/svg" width="22" height="21" viewBox="0 0 22 21"><defs><linearGradient id="4hvca" x1="10.65" x2="10.65" y1=".41" y2="3.88" gradientUnits="userSpaceOnUse"><stop offset="0" stop-color="#9e3085"/><stop offset="1" stop-color="#841375"/></linearGradient><linearGradient id="4hvcb" x1="10.65" x2="10.65" y1="8.67" y2="12.15" gradientUnits="userSpaceOnUse"><stop offset="0" stop-color="#9e3085"/><stop offset="1" stop-color="#841375"/></linearGradient><linearGradient id="4hvcc" x1="10.65" x2="10.65" y1="16.93" y2="20.41" gradientUnits="userSpaceOnUse"><stop offset="0" stop-color="#9e3085"/><stop offset="1" stop-color="#841375"/></linearGradient></defs><g><g><path fill="url(#4hvca)" d="M19.335.406H1.96C.88.406 0 1.186 0 2.145c0 .958.88 1.738 1.96 1.738h17.375c1.08 0 1.96-.78 1.96-1.738 0-.96-.88-1.74-1.96-1.74z"/></g><g><path fill="url(#4hvcb)" d="M19.335 8.67H1.96C.88 8.67 0 9.45 0 10.409c0 .958.88 1.738 1.96 1.738h17.375c1.08 0 1.96-.78 1.96-1.738 0-.96-.88-1.74-1.96-1.74z"/></g><g><path fill="url(#4hvcc)" d="M19.335 16.933H1.96c-1.08 0-1.96.78-1.96 1.74 0 .958.88 1.737 1.96 1.737h17.375c1.08 0 1.96-.78 1.96-1.738 0-.959-.88-1.739-1.96-1.739z"/></g></g></svg>