<svg xmlns="http://www.w3.org/2000/svg" width="13" height="14" viewBox="0 0 13 14"><defs><linearGradient id="a2moa" x1="4.45" x2="8.56" y1="8.25" y2="4.14" gradientUnits="userSpaceOnUse"><stop offset="0" stop-color="#9e3085"/><stop offset="1" stop-color="#841375"/></linearGradient></defs><g><g><path fill="url(#a2moa)" d="M.003 3.436s-.028-.74.442-1.696c.33-.676 1.62-1.05 1.62-1.05s.55-.14 1.658.93c.44.407.72.958.79 1.554.04.544-1.12 1.704-1.12 1.704.09.665.368 1.292.801 1.805.456.53 1.24 1.357 1.653 1.743.352.331.746.763 1.27 1.11 1.03.684 1.278.622 1.278.622s1.468-1.23 1.907-1.187c.334.034.807.254 1.411.77.45.381.737.67.963 1.056.08.133.143.276.188.425 0 0 .059.61-.889 1.581-.943.965-2.243.713-2.243.713s-.748-.111-1.971-.687a13.474 13.474 0 0 1-3.65-2.612C3.118 9.193 1.82 7.626 1.187 6.536c-.796-1.37-1.185-3.1-1.185-3.1z"/></g></g></svg>