<svg xmlns="http://www.w3.org/2000/svg" width="16" height="16" viewBox="0 0 16 16"><g><g><path fill="#752763" d="M8.205 1.343a6.624 6.624 0 0 0-3.447.951 6.591 6.591 0 0 0-2.443 2.602 6.56 6.56 0 0 0 .483 6.843l-.63 1.902.003.002-.184.536 1.068-.316a.027.027 0 0 0-.006-.005l1.465-.46A6.632 6.632 0 0 0 13 12.493a6.587 6.587 0 0 0 1.739-5.68 6.58 6.58 0 0 0-1.207-2.807 6.611 6.611 0 0 0-2.345-1.963 6.637 6.637 0 0 0-2.982-.7zm.013 14.424a7.915 7.915 0 0 1-3.9-1.02L0 16.125l1.419-4.2a7.86 7.86 0 0 1 1.136-9.554 7.938 7.938 0 0 1 9.562-1.345 7.893 7.893 0 0 1 3.389 3.797 7.856 7.856 0 0 1 .359 5.069 7.882 7.882 0 0 1-2.82 4.234 7.932 7.932 0 0 1-4.827 1.64zM4.372 6.26c-.028-.37.045-.739.21-1.07.05-.133.12-.257.207-.368.156-.21.364-.376.604-.48 0 0 .712-.07.774.025.33.571.606 1.172.825 1.794.109.406-.464.87-.464.87s-.362.185 0 .641c.27.34.73.934 1.007 1.153.292.238.602.452.928.64.675.373.8.334.8.334s.125.05.464-.41c.181-.245.38-.532.568-.59.218-.066 1.98.942 1.91.872.123.123.025.52.025.52s.038.445-.633.957c-.442.338-1.173.419-1.173.419a4.492 4.492 0 0 1-1.342-.307c-.715-.269-1.47-.495-2.45-1.384a9.888 9.888 0 0 1-1.759-2.102c-.515-.886-.501-1.514-.501-1.514z"/></g></g></svg>